<svg xmlns="http://www.w3.org/2000/svg" xml:space="preserve" fill-rule="evenodd" stroke-linejoin="round" stroke-miterlimit="2" clip-rule="evenodd" viewBox="0 0 27 25"><path fill="none" d="M.933 0h25v25h-25z"/><path d="M14.161 10.097c-.193-.193-.455-.301-.728-.301-.272 0-.534.108-.727.301L3.75 19.053c-.194.195-.458.304-.733.304s-.539-.109-.734-.304l-.616-.616c-.195-.195-.304-.458-.304-.734 0-.275.109-.539.304-.733l9.683-9.683.007.007s.765-.764 1.367-1.367c.396-.396 1.037-.396 1.433 0l11.004 11.004c.205.205.32.483.32.772 0 .29-.115.568-.32.773l-.548.548c-.202.202-.477.316-.763.316s-.561-.114-.763-.316c-1.938-1.938-7.028-7.029-8.926-8.927"/></svg>