<?xml version="1.0" encoding="UTF-8" standalone="no"?>
<!DOCTYPE svg PUBLIC "-//W3C//DTD SVG 1.1//EN" "http://www.w3.org/Graphics/SVG/1.1/DTD/svg11.dtd">
<svg width="100%" height="100%" viewBox="0 0 27 25" version="1.1" xmlns="http://www.w3.org/2000/svg" xmlns:xlink="http://www.w3.org/1999/xlink" xml:space="preserve" xmlns:serif="http://www.serif.com/" style="fill-rule:evenodd;clip-rule:evenodd;stroke-linejoin:round;stroke-miterlimit:2;">
    <rect id="arrow_up" x="0.933" y="0" width="25" height="25" style="fill:none;"/>
    <path d="M14.161,10.097C13.968,9.904 13.706,9.796 13.433,9.796C13.161,9.796 12.899,9.904 12.706,10.097C10.798,12.005 5.665,17.138 3.75,19.053C3.556,19.248 3.292,19.357 3.017,19.357C2.742,19.357 2.478,19.248 2.283,19.053C2.083,18.853 1.867,18.637 1.667,18.437C1.472,18.242 1.363,17.979 1.363,17.703C1.363,17.428 1.472,17.164 1.667,16.97C4.039,14.598 11.35,7.287 11.35,7.287L11.357,7.294C11.357,7.294 12.122,6.53 12.724,5.927C13.12,5.531 13.761,5.531 14.157,5.927C16.341,8.111 22.903,14.673 25.161,16.931C25.366,17.136 25.481,17.414 25.481,17.703C25.481,17.993 25.366,18.271 25.161,18.476C24.982,18.655 24.792,18.845 24.613,19.024C24.411,19.226 24.136,19.34 23.85,19.34C23.564,19.34 23.289,19.226 23.087,19.024C21.149,17.086 16.059,11.995 14.161,10.097Z"/>
</svg>
