<svg xmlns="http://www.w3.org/2000/svg" xml:space="preserve" fill-rule="evenodd" stroke-linejoin="round" stroke-miterlimit="2" clip-rule="evenodd" viewBox="0 0 27 25"><path fill="none" d="M.861 0h25v25h-25z"/><clipPath id="a"><path d="M.861 0h25v25h-25z"/></clipPath><g clip-path="url(#a)"><path d="M20.979 5.518c.206-.207.489-.318.781-.308.292.011.566.143.756.365 1.69 2.059 2.71 4.691 2.71 7.56C25.226 19.684 19.91 25 13.361 25 6.813 25 1.497 19.684 1.497 13.135c0-2.869 1.02-5.501 2.717-7.553.189-.22.46-.351.749-.361.289-.011.569.099.774.303.138.125.275.262.404.391.385.386.411 1.002.059 1.418-1.295 1.58-2.067 3.602-2.067 5.802 0 5.093 4.135 9.228 9.228 9.228s9.228-4.135 9.228-9.228c0-2.2-.772-4.222-2.059-5.809-.348-.412-.323-1.022.059-1.403.122-.137.258-.274.39-.405"/><path d="M13.649 0c.273 0 .535.109.729.302.193.193.302.456.302.729v8.484c0 .274-.109.536-.302.729-.194.194-.456.302-.729.302h-.575c-.273 0-.536-.108-.729-.302-.193-.193-.302-.455-.302-.729V1.031c0-.273.109-.536.302-.729S12.801 0 13.074 0z"/></g></svg>