<svg xmlns="http://www.w3.org/2000/svg" xml:space="preserve" fill-rule="evenodd" stroke-linejoin="round" stroke-miterlimit="2" clip-rule="evenodd" viewBox="0 0 25 25"><path fill="none" d="M0 0h25v25H0z"/><path d="M20.823 4.15c0-.576.466-1.042 1.042-1.042h2.088c.571 0 1.034.463 1.034 1.034v.708c0 .571-.463 1.034-1.034 1.034h-2.088c-.576 0-1.042-.466-1.042-1.042zm-5.553.644c0 .289-.115.566-.319.771-.205.204-.482.319-.772.319H1.078c-.286 0-.56-.113-.762-.316C.114 5.366 0 5.092 0 4.806v-.62c0-.286.114-.56.316-.762.202-.203.476-.316.762-.316h13.101c.29 0 .567.115.772.319.204.205.319.482.319.772z"/><circle cx="5.49" cy="12.5" r="1.873"/><circle cx="18.046" cy="4.496" r="1.873"/><path d="M2.698 12.868c0 .561-.455 1.015-1.015 1.015h-.605c-.286 0-.56-.114-.762-.316S0 13.091 0 12.805v-.62c0-.286.114-.56.316-.763.202-.202.476-.315.762-.315h.605c.56 0 1.015.454 1.015 1.015zm5.552-.753c0-.268.107-.524.296-.713s.445-.295.712-.295h14.695c.571 0 1.034.463 1.034 1.034v.708c0 .571-.463 1.034-1.034 1.034H9.258c-.267 0-.523-.106-.712-.295s-.296-.446-.296-.713zm.085 8.747c0 .563-.456 1.02-1.019 1.02H1.078c-.286 0-.56-.114-.762-.316S0 21.09 0 20.804v-.62c0-.286.114-.561.316-.763s.476-.316.762-.316h6.238c.563 0 1.019.457 1.019 1.02zm5.553-.69c0-.283.113-.554.312-.754.2-.2.472-.313.754-.313h8.999c.571 0 1.034.463 1.034 1.034v.709c0 .571-.463 1.034-1.034 1.034h-8.999c-.282 0-.554-.113-.754-.312-.199-.2-.312-.472-.312-.754z"/><circle cx="11.112" cy="20.494" r="1.873"/></svg>