<svg viewBox="0 0 600 600" width="600" height="600" xmlns="http://www.w3.org/2000/svg"><g style="stroke-width:1.05103"><path style="color:#000;fill:#000;stroke-linecap:round;-inkscape-stroke:none" d="M447.709-12.781a42.04 42.04 0 0 0-42.041 42.041v21.042H27.435a42.04 42.04 0 0 0-42.041 42.04 42.04 42.04 0 0 0 42.04 42.041h378.234v21.066a42.04 42.04 0 0 0 42.04 42.042 42.04 42.04 0 0 0 42.042-42.042v-21.066h84.03a42.04 42.04 0 0 0 42.043-42.042 42.04 42.04 0 0 0-42.043-42.04h-84.03v-21.04a42.04 42.04 0 0 0-42.041-42.042M143 197.489a42.04 42.04 0 0 0-42.043 42.041v21.04h-73.51a42.04 42.04 0 0 0-42.042 42.041 42.04 42.04 0 0 0 42.041 42.042h73.511v21.066A42.04 42.04 0 0 0 143 407.761a42.04 42.04 0 0 0 42.041-42.042v-21.066h388.753a42.04 42.04 0 0 0 42.04-42.042 42.04 42.04 0 0 0-42.04-42.041H185.042v-21.04a42.04 42.04 0 0 0-42.04-42.041M279.594 407.76a42.04 42.04 0 0 0-42.04 42.04v21.039H27.446a42.04 42.04 0 0 0-42.04 42.041 42.04 42.04 0 0 0 42.04 42.04h210.106v21.068a42.04 42.04 0 0 0 42.041 42.04 42.04 42.04 0 0 0 42.041-42.04V554.92h252.16a42.04 42.04 0 0 0 42.04-42.04 42.04 42.04 0 0 0-42.04-42.041h-252.16V449.8a42.04 42.04 0 0 0-42.04-42.04" transform="matrix(.95173 0 0 .95116 13.901 12.169)"/></g></svg>
