<?xml version="1.0" encoding="UTF-8" standalone="no"?>
<!DOCTYPE svg PUBLIC "-//W3C//DTD SVG 1.1//EN" "http://www.w3.org/Graphics/SVG/1.1/DTD/svg11.dtd">
<svg width="100%" height="100%" viewBox="0 0 25 25" version="1.1" xmlns="http://www.w3.org/2000/svg" xmlns:xlink="http://www.w3.org/1999/xlink" xml:space="preserve" xmlns:serif="http://www.serif.com/" style="fill-rule:evenodd;clip-rule:evenodd;stroke-linejoin:round;stroke-miterlimit:2;">
    <rect id="settings" x="0" y="0" width="25" height="25" style="fill:none;"/>
    <path d="M20.823,4.15C20.823,3.574 21.289,3.108 21.865,3.108C22.776,3.108 23.953,3.108 23.953,3.108C24.524,3.108 24.987,3.571 24.987,4.142L24.987,4.85C24.987,5.421 24.524,5.884 23.953,5.884C23.953,5.884 22.776,5.884 21.865,5.884C21.289,5.884 20.823,5.418 20.823,4.842C20.823,4.616 20.823,4.376 20.823,4.15ZM14.271,4.794C14.271,5.396 13.783,5.884 13.18,5.884C10.019,5.884 1.078,5.884 1.078,5.884C0.792,5.884 0.518,5.771 0.316,5.568C0.114,5.366 0,5.092 0,4.806L0,4.186C0,3.9 0.114,3.626 0.316,3.424C0.518,3.221 0.792,3.108 1.078,3.108C1.078,3.108 10.019,3.108 13.18,3.108C13.783,3.108 14.271,3.596 14.271,4.199C14.271,4.394 14.271,4.598 14.271,4.794Z"/>
    <path d="M5.95,9.788C7.444,9.788 8.657,11.001 8.657,12.495C8.657,13.989 7.444,15.201 5.95,15.201C4.456,15.201 3.244,13.989 3.244,12.495C3.244,11.001 4.456,9.788 5.95,9.788ZM5.95,11.403C5.348,11.403 4.858,11.892 4.858,12.495C4.858,13.097 5.348,13.587 5.95,13.587C6.553,13.587 7.042,13.097 7.042,12.495C7.042,11.892 6.553,11.403 5.95,11.403Z"/>
    <path d="M11.564,17.787C13.057,17.787 14.27,19 14.27,20.494C14.27,21.987 13.057,23.2 11.564,23.2C10.07,23.2 8.857,21.987 8.857,20.494C8.857,19 10.07,17.787 11.564,17.787ZM11.564,19.402C10.961,19.402 10.472,19.891 10.472,20.494C10.472,21.096 10.961,21.586 11.564,21.586C12.166,21.586 12.655,21.096 12.655,20.494C12.655,19.891 12.166,19.402 11.564,19.402Z"/>
    <path d="M2.698,12.868C2.698,13.429 2.243,13.883 1.683,13.883C1.357,13.883 1.078,13.883 1.078,13.883C0.792,13.883 0.518,13.769 0.316,13.567C0.114,13.365 0,13.091 0,12.805L0,12.185C0,11.899 0.114,11.625 0.316,11.422C0.518,11.22 0.792,11.107 1.078,11.107L1.683,11.107C2.243,11.107 2.698,11.561 2.698,12.122C2.698,12.365 2.698,12.625 2.698,12.868ZM9.203,12.115C9.203,11.847 9.309,11.591 9.498,11.402C9.687,11.213 9.943,11.107 10.211,11.107C13.537,11.107 23.953,11.107 23.953,11.107C24.524,11.107 24.987,11.57 24.987,12.141L24.987,12.849C24.987,13.42 24.524,13.883 23.953,13.883C23.953,13.883 13.537,13.883 10.211,13.883C9.943,13.883 9.687,13.777 9.498,13.588C9.309,13.399 9.203,13.142 9.203,12.875C9.203,12.627 9.203,12.362 9.203,12.115Z"/>
    <path d="M8.335,20.862C8.335,21.425 7.879,21.882 7.316,21.882C5.317,21.882 1.078,21.882 1.078,21.882C0.792,21.882 0.518,21.768 0.316,21.566C0.114,21.364 0,21.09 0,20.804L0,20.184C0,19.898 0.114,19.623 0.316,19.421C0.518,19.219 0.792,19.105 1.078,19.105L7.316,19.105C7.879,19.105 8.335,19.562 8.335,20.125C8.335,20.366 8.335,20.622 8.335,20.862ZM14.792,20.172C14.792,19.889 14.904,19.618 15.104,19.418C15.304,19.218 15.575,19.105 15.858,19.105C18.273,19.105 23.953,19.105 23.953,19.105C24.524,19.105 24.987,19.568 24.987,20.139L24.987,20.848C24.987,21.419 24.524,21.882 23.953,21.882C23.953,21.882 18.273,21.882 15.858,21.882C15.575,21.882 15.304,21.769 15.104,21.57C14.904,21.37 14.792,21.098 14.792,20.816C14.792,20.604 14.792,20.383 14.792,20.172Z"/>
    <path d="M17.498,1.789C18.992,1.789 20.205,3.002 20.205,4.496C20.205,5.99 18.992,7.203 17.498,7.203C16.004,7.203 14.792,5.99 14.792,4.496C14.792,3.002 16.004,1.789 17.498,1.789ZM17.498,3.404C16.896,3.404 16.406,3.893 16.406,4.496C16.406,5.099 16.896,5.588 17.498,5.588C18.101,5.588 18.59,5.099 18.59,4.496C18.59,3.893 18.101,3.404 17.498,3.404Z"/>
</svg>
