<?xml version="1.0" encoding="UTF-8" standalone="no"?>
<!DOCTYPE svg PUBLIC "-//W3C//DTD SVG 1.1//EN" "http://www.w3.org/Graphics/SVG/1.1/DTD/svg11.dtd">
<svg width="100%" height="100%" viewBox="0 0 25 25" version="1.1" xmlns="http://www.w3.org/2000/svg" xmlns:xlink="http://www.w3.org/1999/xlink" xml:space="preserve" xmlns:serif="http://www.serif.com/" style="fill-rule:evenodd;clip-rule:evenodd;stroke-linejoin:round;stroke-miterlimit:2;">
    <rect id="close" x="0" y="0" width="25" height="24.96" style="fill:none;"/>
    <path d="M10.29,12.48L3.66,5.85C3.05,5.24 3.05,4.252 3.66,3.643L3.661,3.641C4.271,3.031 5.261,3.031 5.871,3.641L12.5,10.27L19.129,3.641C19.739,3.031 20.729,3.031 21.339,3.641L21.34,3.643C21.95,4.252 21.95,5.24 21.34,5.85L14.71,12.48L21.339,19.109C21.949,19.72 21.949,20.709 21.339,21.319C20.729,21.929 19.739,21.929 19.129,21.319L12.5,14.69L5.869,21.32C5.26,21.93 4.272,21.93 3.663,21.32L3.661,21.319C3.051,20.709 3.051,19.72 3.661,19.109L10.29,12.48Z"/>
</svg>
