<?xml version="1.0" encoding="UTF-8" standalone="no"?>
<!DOCTYPE svg PUBLIC "-//W3C//DTD SVG 1.1//EN" "http://www.w3.org/Graphics/SVG/1.1/DTD/svg11.dtd">
<svg width="100%" height="100%" viewBox="0 0 27 27" version="1.1" xmlns="http://www.w3.org/2000/svg" xmlns:xlink="http://www.w3.org/1999/xlink" xml:space="preserve" xmlns:serif="http://www.serif.com/" style="fill-rule:evenodd;clip-rule:evenodd;stroke-linejoin:round;stroke-miterlimit:2;">
    <rect id="resize" x="1.015" y="0.323" width="25" height="24.96" style="fill:none;"/>
    <clipPath id="_clip1">
        <rect x="1.015" y="0.323" width="25" height="24.96"/>
    </clipPath>
    <g clip-path="url(#_clip1)">
        <path d="M11.452,24.242C11.452,24.817 10.985,25.283 10.41,25.283C8.41,25.283 4.056,25.283 2.057,25.283C1.481,25.283 1.015,24.817 1.015,24.242C1.015,22.246 1.015,17.904 1.015,15.908C1.015,15.333 1.481,14.867 2.057,14.867C2.392,14.867 2.763,14.867 3.098,14.867C3.674,14.867 4.14,15.333 4.14,15.908C4.14,17.401 4.14,19.969 4.14,19.969L20.661,3.448L16.62,3.448C16.045,3.448 15.579,2.982 15.579,2.406C15.579,2.071 15.579,1.7 15.579,1.365C15.579,0.789 16.045,0.323 16.62,0.323C18.62,0.323 22.974,0.323 24.973,0.323C25.549,0.323 26.015,0.789 26.015,1.365C26.015,3.361 26.015,7.702 26.015,9.698C26.015,10.273 25.549,10.74 24.973,10.74C24.638,10.74 24.267,10.74 23.932,10.74C23.356,10.74 22.89,10.273 22.89,9.698C22.89,8.206 22.89,5.638 22.89,5.638L6.37,22.158L10.41,22.158C10.985,22.158 11.452,22.625 11.452,23.2C11.452,23.535 11.452,23.907 11.452,24.242Z"/>
    </g>
</svg>
