<?xml version="1.0" encoding="UTF-8" standalone="no"?>
<!DOCTYPE svg PUBLIC "-//W3C//DTD SVG 1.1//EN" "http://www.w3.org/Graphics/SVG/1.1/DTD/svg11.dtd">
<svg width="100%" height="100%" viewBox="0 0 27 25" version="1.1" xmlns="http://www.w3.org/2000/svg" xmlns:xlink="http://www.w3.org/1999/xlink" xml:space="preserve" xmlns:serif="http://www.serif.com/" style="fill-rule:evenodd;clip-rule:evenodd;stroke-linejoin:round;stroke-miterlimit:2;">
    <rect id="lock" x="1.006" y="0" width="25" height="25" style="fill:none;"/>
    <clipPath id="_clip1">
        <rect x="1.006" y="0" width="25" height="25"/>
    </clipPath>
    <g clip-path="url(#_clip1)">
        <path d="M23.509,23.946C23.509,24.528 23.037,25 22.455,25C18.986,25 7.955,25 4.528,25C4.256,25 3.995,24.892 3.802,24.699C3.61,24.507 3.502,24.246 3.502,23.974C3.502,21.43 3.502,14.851 3.502,12.287C3.502,12.011 3.612,11.745 3.808,11.549C4.003,11.353 4.269,11.243 4.546,11.243C8.003,11.243 19.051,11.243 22.482,11.243C22.755,11.243 23.016,11.352 23.209,11.544C23.401,11.737 23.509,11.998 23.509,12.27C23.509,14.812 23.509,21.376 23.509,23.946ZM13.082,18.946L12.646,20.693L14.365,20.74L13.924,18.948C14.686,18.76 15.253,18.071 15.253,17.251C15.253,16.287 14.47,15.504 13.506,15.504C12.541,15.504 11.759,16.287 11.759,17.251C11.759,18.069 12.322,18.757 13.082,18.946Z"/>
        <path d="M19.052,8.147C19.052,5.074 16.558,2.579 13.485,2.579C10.412,2.579 7.917,5.074 7.917,8.147L7.917,11.243L5.338,11.243L5.338,8.147C5.338,3.651 8.988,-0 13.485,-0C17.981,-0 21.632,3.651 21.632,8.147L21.632,11.243L19.052,11.243L19.052,8.147Z"/>
    </g>
</svg>
