<svg xmlns="http://www.w3.org/2000/svg" xml:space="preserve" fill-rule="evenodd" stroke-linejoin="round" stroke-miterlimit="2" clip-rule="evenodd" viewBox="0 0 27 25"><path fill="none" d="M1.006 0h25v25h-25z"/><clipPath id="a"><path d="M1.006 0h25v25h-25z"/></clipPath><g clip-path="url(#a)"><path d="M23.509 23.946c0 .582-.472 1.054-1.054 1.054H4.528c-.272 0-.533-.108-.726-.301-.192-.192-.3-.453-.3-.725V12.287c0-.276.11-.542.306-.738.195-.196.461-.306.738-.306h17.936c.273 0 .534.109.727.301.192.193.3.454.3.726zm-10.427-5-.436 1.747 1.719.047-.441-1.792c.762-.188 1.329-.877 1.329-1.697 0-.964-.783-1.747-1.747-1.747-.965 0-1.747.783-1.747 1.747 0 .818.563 1.506 1.323 1.695m5.97-10.799c0-3.073-2.494-5.568-5.567-5.568S7.917 5.074 7.917 8.147v3.096H5.338V8.147C5.338 3.651 8.988 0 13.485 0c4.496 0 8.147 3.651 8.147 8.147v3.096h-2.58z"/></g></svg>