<svg xmlns="http://www.w3.org/2000/svg" xml:space="preserve" fill-rule="evenodd" stroke-linejoin="round" stroke-miterlimit="2" clip-rule="evenodd" viewBox="0 0 27 25"><path fill="none" d="M.97 0h25v25h-25z"/><clipPath id="a"><path d="M.97 0h25v25h-25z"/></clipPath><g clip-path="url(#a)"><path d="M15.992 15.118v8.65c0 .68-.552 1.232-1.232 1.232H5.179l-.055-.001L5.07 25h-.036c-.327 0-.64-.13-.871-.361s-.361-.544-.361-.871V1.232c0-.327.13-.64.361-.871S4.707 0 5.034 0h.036l.054.001L5.179 0h9.581c.68 0 1.232.552 1.232 1.232v8.65h-3.627c-.281 0-.551.112-.75.311s-.311.469-.311.75v3.156c0 .27.107.53.298.721s.45.298.721.298zm7.017-3.117c.083.152.128.323.128.499s-.045.347-.128.499c.028-.093.042-.191.042-.29v-.418c0-.099-.014-.197-.042-.29"/><path d="M23.009 12.001c.083.152.128.323.128.499s-.045.347-.128.499c.028-.093.042-.191.042-.29v-.418c0-.099-.014-.197-.042-.29"/><path d="M23.009 12.001c.083.152.128.323.128.499s-.045.347-.128.499c.028-.093.042-.191.042-.29v-.418c0-.099-.014-.197-.042-.29"/><path d="M23.009 12.999c-.047.086-.106.166-.177.237l-.295.296-3.244 3.243c-.195.195-.46.305-.736.305s-.54-.11-.736-.305l-.295-.296c-.196-.195-.305-.46-.305-.736s.109-.541.305-.736l1.257-1.257h-5.629c-.276 0-.541-.11-.736-.305s-.305-.46-.305-.736v-.418c0-.276.11-.541.305-.736s.46-.305.736-.305h5.629l-1.257-1.257c-.196-.195-.305-.46-.305-.736s.109-.541.305-.736l.295-.296c.196-.195.46-.305.736-.305s.541.11.736.305l3.244 3.243.295.296c.071.071.13.151.177.237.083.152.128.323.128.499s-.045.347-.128.499"/></g></svg>