<?xml version="1.0" encoding="UTF-8" standalone="no"?>
<!DOCTYPE svg PUBLIC "-//W3C//DTD SVG 1.1//EN" "http://www.w3.org/Graphics/SVG/1.1/DTD/svg11.dtd">
<svg width="100%" height="100%" viewBox="0 0 27 25" version="1.1" xmlns="http://www.w3.org/2000/svg" xmlns:xlink="http://www.w3.org/1999/xlink" xml:space="preserve" xmlns:serif="http://www.serif.com/" style="fill-rule:evenodd;clip-rule:evenodd;stroke-linejoin:round;stroke-miterlimit:2;">
    <rect id="logout" x="0.97" y="0" width="25" height="25" style="fill:none;"/>
    <clipPath id="_clip1">
        <rect x="0.97" y="0" width="25" height="25"/>
    </clipPath>
    <g clip-path="url(#_clip1)">
        <path d="M23.009,12.001C23.092,12.153 23.137,12.324 23.137,12.5C23.137,12.676 23.092,12.847 23.009,12.999C23.037,12.906 23.051,12.808 23.051,12.709L23.051,12.291C23.051,12.192 23.037,12.094 23.009,12.001Z"/>
        <path d="M21.105,23.958C21.105,24.235 20.995,24.5 20.8,24.695C20.605,24.89 20.34,25 20.063,25L5.48,25C4.905,25 4.438,24.534 4.438,23.958C4.438,19.892 4.438,5.108 4.438,1.042C4.438,0.765 4.548,0.5 4.744,0.305C4.939,0.11 5.204,-0 5.48,-0L6.522,0L6.522,-0.009L20.063,-0.009C20.639,-0.009 21.105,0.457 21.105,1.033C21.105,2.811 21.105,6.241 21.105,6.241L21.105,6.241C19.955,6.241 19.022,5.308 19.022,4.158C19.022,3.812 19.022,3.467 19.022,3.16C19.022,2.56 18.536,2.074 17.936,2.074C15.546,2.074 9.862,2.074 7.538,2.074C7.269,2.074 7.01,2.181 6.819,2.372C6.629,2.562 6.522,2.821 6.522,3.091C6.522,6.618 6.522,18.309 6.522,21.875C6.522,22.151 6.632,22.416 6.827,22.612C7.022,22.807 7.287,22.917 7.563,22.917C9.918,22.917 15.626,22.917 17.98,22.917C18.555,22.917 19.022,22.45 19.022,21.875C19.022,21.557 19.022,21.195 19.022,20.833C19.022,19.683 19.955,18.75 21.105,18.75C21.105,18.75 21.105,18.75 21.105,18.75L21.105,23.958Z"/>
        <path d="M23.009,12.001C23.092,12.153 23.137,12.324 23.137,12.5C23.137,12.676 23.092,12.847 23.009,12.999C23.037,12.906 23.051,12.808 23.051,12.709L23.051,12.291C23.051,12.192 23.037,12.094 23.009,12.001Z"/>
        <path d="M23.009,12.001C23.092,12.153 23.137,12.324 23.137,12.5C23.137,12.676 23.092,12.847 23.009,12.999C23.037,12.906 23.051,12.808 23.051,12.709L23.051,12.291C23.051,12.192 23.037,12.094 23.009,12.001Z"/>
        <path d="M23.009,12.999C22.962,13.085 22.903,13.165 22.832,13.236L22.537,13.532L19.293,16.775C19.098,16.97 18.833,17.08 18.557,17.08C18.281,17.08 18.017,16.97 17.821,16.775L17.526,16.479C17.33,16.284 17.221,16.019 17.221,15.743C17.221,15.467 17.33,15.202 17.526,15.007L18.783,13.75L13.154,13.75C12.878,13.75 12.613,13.64 12.418,13.445C12.223,13.25 12.113,12.985 12.113,12.709L12.113,12.291C12.113,12.015 12.223,11.75 12.418,11.555C12.613,11.36 12.878,11.25 13.154,11.25L18.783,11.25L17.526,9.993C17.33,9.798 17.221,9.533 17.221,9.257C17.221,8.981 17.33,8.716 17.526,8.521L17.821,8.225C18.017,8.03 18.281,7.92 18.557,7.92C18.833,7.92 19.098,8.03 19.293,8.225L22.537,11.468L22.832,11.764C22.903,11.835 22.962,11.915 23.009,12.001C23.092,12.153 23.137,12.324 23.137,12.5C23.137,12.676 23.092,12.847 23.009,12.999Z"/>
    </g>
</svg>
