<?xml version="1.0" encoding="UTF-8" standalone="no"?>
<!DOCTYPE svg PUBLIC "-//W3C//DTD SVG 1.1//EN" "http://www.w3.org/Graphics/SVG/1.1/DTD/svg11.dtd">
<svg width="100%" height="100%" viewBox="0 0 27 25" version="1.1" xmlns="http://www.w3.org/2000/svg" xmlns:xlink="http://www.w3.org/1999/xlink" xml:space="preserve" xmlns:serif="http://www.serif.com/" style="fill-rule:evenodd;clip-rule:evenodd;stroke-linejoin:round;stroke-miterlimit:2;">
    <rect id="power" x="0.861" y="0" width="25" height="25" style="fill:none;"/>
    <clipPath id="_clip1">
        <rect x="0.861" y="0" width="25" height="25"/>
    </clipPath>
    <g clip-path="url(#_clip1)">
        <path d="M20.979,5.518C21.185,5.311 21.468,5.2 21.76,5.21C22.052,5.221 22.326,5.353 22.516,5.575C24.206,7.634 25.226,10.266 25.226,13.135C25.226,19.684 19.91,25 13.361,25C6.813,25 1.497,19.684 1.497,13.135C1.497,10.266 2.517,7.634 4.214,5.582C4.403,5.362 4.674,5.231 4.963,5.221C5.252,5.21 5.532,5.32 5.737,5.524C5.875,5.649 6.012,5.786 6.141,5.915C6.526,6.301 6.552,6.917 6.2,7.333C4.905,8.913 4.133,10.935 4.133,13.135C4.133,18.228 8.268,22.363 13.361,22.363C18.454,22.363 22.589,18.228 22.589,13.135C22.589,10.935 21.817,8.913 20.53,7.326C20.182,6.914 20.207,6.304 20.589,5.923C20.711,5.786 20.847,5.649 20.979,5.518Z"/>
        <path d="M13.649,0C13.922,-0 14.184,0.109 14.378,0.302C14.571,0.495 14.68,0.758 14.68,1.031C14.68,3.049 14.68,7.498 14.68,9.515C14.68,9.789 14.571,10.051 14.378,10.244C14.184,10.438 13.922,10.546 13.649,10.546C13.46,10.546 13.263,10.546 13.074,10.546C12.801,10.546 12.538,10.438 12.345,10.244C12.152,10.051 12.043,9.789 12.043,9.515C12.043,7.498 12.043,3.049 12.043,1.031C12.043,0.758 12.152,0.495 12.345,0.302C12.538,0.109 12.801,-0 13.074,0C13.263,0 13.46,0 13.649,0Z"/>
    </g>
</svg>
