<?xml version="1.0" encoding="UTF-8" standalone="no"?>
<!DOCTYPE svg PUBLIC "-//W3C//DTD SVG 1.1//EN" "http://www.w3.org/Graphics/SVG/1.1/DTD/svg11.dtd">
<svg width="100%" height="100%" viewBox="0 0 27 25" version="1.1" xmlns="http://www.w3.org/2000/svg" xmlns:xlink="http://www.w3.org/1999/xlink" xml:space="preserve" xmlns:serif="http://www.serif.com/" style="fill-rule:evenodd;clip-rule:evenodd;stroke-linejoin:round;stroke-miterlimit:2;">
    <rect id="restart" x="0.933" y="0" width="25" height="25" style="fill:none;"/>
    <clipPath id="_clip1">
        <rect x="0.933" y="0" width="25" height="25"/>
    </clipPath>
    <g clip-path="url(#_clip1)">
        <path d="M21.446,7.184C21.662,7.009 21.942,6.932 22.217,6.972C22.493,7.012 22.739,7.165 22.897,7.394C24.081,9.194 24.774,11.346 24.774,13.659C24.774,19.918 19.693,25 13.433,25C7.174,25 2.092,19.918 2.092,13.659C2.092,7.765 6.599,2.914 12.352,2.369C12.628,2.346 12.902,2.44 13.106,2.628C13.31,2.816 13.426,3.08 13.426,3.358C13.433,3.537 13.433,3.721 13.433,3.897C13.433,4.414 13.039,4.845 12.525,4.892C8.082,5.34 4.613,9.098 4.613,13.659C4.613,18.527 8.565,22.48 13.433,22.48C18.302,22.48 22.254,18.527 22.254,13.659C22.254,11.888 21.732,10.239 20.832,8.857C20.544,8.431 20.63,7.855 21.03,7.532C21.162,7.414 21.306,7.297 21.446,7.184Z"/>
        <path d="M11.914,2.66C12.038,2.414 12.255,2.227 12.518,2.141C12.78,2.054 13.066,2.076 13.312,2.2C13.441,2.266 13.574,2.333 13.703,2.398C13.95,2.522 14.137,2.74 14.223,3.002C14.309,3.264 14.288,3.55 14.163,3.796C13.553,5.005 12.492,7.105 11.882,8.314C11.757,8.561 11.54,8.748 11.278,8.834C11.016,8.92 10.73,8.899 10.483,8.774C10.354,8.709 10.221,8.642 10.092,8.577C9.846,8.452 9.659,8.235 9.572,7.973C9.486,7.711 9.508,7.425 9.632,7.178C10.243,5.969 11.303,3.869 11.914,2.66Z"/>
        <path d="M13.703,2.384C13.95,2.509 14.137,2.726 14.223,2.988C14.309,3.25 14.288,3.536 14.163,3.783C14.098,3.912 14.031,4.045 13.966,4.174C13.841,4.42 13.624,4.607 13.362,4.693C13.1,4.78 12.814,4.758 12.567,4.634C11.358,4.023 9.258,2.963 8.049,2.352C7.803,2.228 7.616,2.011 7.53,1.748C7.443,1.486 7.465,1.2 7.589,0.954C7.654,0.825 7.721,0.692 7.787,0.563C7.911,0.316 8.128,0.129 8.391,0.043C8.653,-0.043 8.939,-0.022 9.185,0.103C10.394,0.713 12.494,1.774 13.703,2.384Z"/>
    </g>
</svg>
