<svg xmlns="http://www.w3.org/2000/svg" xml:space="preserve" fill-rule="evenodd" stroke-linejoin="round" stroke-miterlimit="2" clip-rule="evenodd" viewBox="0 0 27 25"><path fill="none" d="M.933 0h25v25h-25z"/><clipPath id="a"><path d="M.933 0h25v25h-25z"/></clipPath><g clip-path="url(#a)"><path d="M21.446 7.184c.216-.175.496-.252.771-.212.276.04.522.193.68.422 1.184 1.8 1.877 3.952 1.877 6.265C24.774 19.918 19.693 25 13.433 25 7.174 25 2.092 19.918 2.092 13.659c0-5.894 4.507-10.745 10.26-11.29.276-.023.55.071.754.259s.32.452.32.73c.007.179.007.363.007.539 0 .517-.394.948-.908.995-4.443.448-7.912 4.206-7.912 8.767 0 4.868 3.952 8.821 8.82 8.821 4.869 0 8.821-3.953 8.821-8.821 0-1.771-.522-3.42-1.422-4.802-.288-.426-.202-1.002.198-1.325.132-.118.276-.235.416-.348"/><path d="M11.914 2.66c.124-.246.341-.433.604-.519.262-.087.548-.065.794.059.129.066.262.133.391.198.247.124.434.342.52.604s.065.548-.06.794c-.61 1.209-1.671 3.309-2.281 4.518-.125.247-.342.434-.604.52s-.548.065-.795-.06l-.391-.197a1.0482 1.0482 0 0 1-.52-.604c-.086-.262-.064-.548.06-.795.611-1.209 1.671-3.309 2.282-4.518"/><path d="M13.703 2.384c.247.125.434.342.52.604s.065.548-.06.795l-.197.391c-.125.246-.342.433-.604.519-.262.087-.548.065-.795-.059-1.209-.611-3.309-1.671-4.518-2.282-.246-.124-.433-.341-.519-.604-.087-.262-.065-.548.059-.794.065-.129.132-.262.198-.391.124-.247.341-.434.604-.52.262-.086.548-.065.794.06 1.209.61 3.309 1.671 4.518 2.281"/></g></svg>