<?xml version="1.0" encoding="UTF-8" standalone="no"?>
<!DOCTYPE svg PUBLIC "-//W3C//DTD SVG 1.1//EN" "http://www.w3.org/Graphics/SVG/1.1/DTD/svg11.dtd">
<svg width="100%" height="100%" viewBox="0 0 27 27" version="1.1" xmlns="http://www.w3.org/2000/svg" xmlns:xlink="http://www.w3.org/1999/xlink" xml:space="preserve" xmlns:serif="http://www.serif.com/" style="fill-rule:evenodd;clip-rule:evenodd;stroke-linejoin:round;stroke-miterlimit:2;">
    <rect id="settings" x="0.084" y="0.928" width="25" height="24.96" style="fill:none;"/>
    <clipPath id="_clip1">
        <rect x="0.084" y="0.928" width="25" height="24.96"/>
    </clipPath>
    <g clip-path="url(#_clip1)">
        <path d="M4.003,18.357C3.233,17.039 1.847,16.3 0.42,16.293C0.2,15.367 0.084,14.401 0.084,13.408C0.084,12.43 0.197,11.478 0.411,10.564C1.848,10.56 3.244,9.813 4.014,8.48L4.017,8.475C4.783,7.144 4.731,5.566 4.019,4.322C5.41,3.014 7.102,2.02 8.979,1.456C9.701,2.697 11.046,3.532 12.584,3.532C14.122,3.532 15.467,2.697 16.189,1.456C18.066,2.02 19.758,3.014 21.149,4.322C20.439,5.561 20.386,7.133 21.143,8.461L21.154,8.48C21.924,9.813 23.32,10.56 24.757,10.564C24.971,11.478 25.084,12.43 25.084,13.408C25.084,14.401 24.968,15.367 24.748,16.293C23.316,16.3 21.926,17.044 21.157,18.37L21.154,18.376C20.391,19.698 20.435,21.267 21.135,22.509C19.741,23.815 18.047,24.806 16.169,25.367C15.442,24.144 14.108,23.324 12.584,23.324C11.06,23.324 9.726,24.144 8.999,25.367C7.121,24.806 5.427,23.815 4.033,22.509C4.733,21.267 4.777,19.698 4.014,18.376L4.003,18.357ZM12.584,8.498C9.874,8.498 7.673,10.698 7.673,13.408C7.673,16.119 9.874,18.319 12.584,18.319C15.294,18.319 17.495,16.119 17.495,13.408C17.495,10.698 15.294,8.498 12.584,8.498Z"/>
    </g>
</svg>
