<?xml version="1.0" encoding="UTF-8" standalone="no"?>
<!DOCTYPE svg PUBLIC "-//W3C//DTD SVG 1.1//EN" "http://www.w3.org/Graphics/SVG/1.1/DTD/svg11.dtd">
<svg width="100%" height="100%" viewBox="0 0 27 27" version="1.1" xmlns="http://www.w3.org/2000/svg" xmlns:xlink="http://www.w3.org/1999/xlink" xml:space="preserve" xmlns:serif="http://www.serif.com/" style="fill-rule:evenodd;clip-rule:evenodd;stroke-linejoin:round;stroke-miterlimit:2;">
    <rect id="settings" x="0.981" y="0.323" width="25" height="24.96" style="fill:none;"/>
    <clipPath id="_clip1">
        <rect x="0.981" y="0.323" width="25" height="24.96"/>
    </clipPath>
    <g clip-path="url(#_clip1)">
        <path d="M4.9,17.752C4.13,16.434 2.744,15.694 1.317,15.688C1.098,14.762 0.981,13.796 0.981,12.803C0.981,11.825 1.094,10.872 1.308,9.959C2.745,9.955 4.142,9.208 4.911,7.875L4.914,7.87C5.68,6.539 5.628,4.961 4.916,3.717C6.308,2.409 7.999,1.415 9.877,0.851C10.599,2.092 11.943,2.927 13.481,2.927C15.019,2.927 16.364,2.092 17.086,0.851C18.963,1.415 20.655,2.409 22.046,3.717C21.337,4.956 21.283,6.528 22.04,7.856L22.051,7.875C22.821,9.208 24.218,9.955 25.654,9.959C25.868,10.872 25.981,11.825 25.981,12.803C25.981,13.796 25.865,14.762 25.645,15.688C24.214,15.694 22.823,16.439 22.055,17.765C22.053,17.767 22.052,17.769 22.051,17.771C21.288,19.093 21.333,20.662 22.032,21.904C20.638,23.21 18.945,24.2 17.066,24.762C16.34,23.539 15.005,22.719 13.481,22.719C11.957,22.719 10.623,23.539 9.896,24.762C8.018,24.2 6.324,23.21 4.931,21.904C5.63,20.662 5.675,19.093 4.911,17.771L4.9,17.752Z" style="fill:rgb(128,137,146);"/>
        <circle cx="13.461" cy="12.803" r="5.729" style="fill:rgb(226,226,226);"/>
        <circle cx="13.461" cy="12.803" r="3.646" style="fill:rgb(18,89,153);"/>
    </g>
</svg>
