<?xml version="1.0" encoding="UTF-8" standalone="no"?>
<!DOCTYPE svg PUBLIC "-//W3C//DTD SVG 1.1//EN" "http://www.w3.org/Graphics/SVG/1.1/DTD/svg11.dtd">
<svg width="100%" height="100%" viewBox="0 0 27 25" version="1.1" xmlns="http://www.w3.org/2000/svg" xmlns:xlink="http://www.w3.org/1999/xlink" xml:space="preserve" xmlns:serif="http://www.serif.com/" style="fill-rule:evenodd;clip-rule:evenodd;stroke-linejoin:round;stroke-miterlimit:2;">
    <rect id="arrow_down" x="0.897" y="0" width="25" height="25" style="fill:none;"/>
    <path d="M12.67,14.898C12.863,15.091 13.125,15.199 13.397,15.199C13.67,15.199 13.932,15.091 14.125,14.898C16.032,12.99 21.166,7.857 23.081,5.942C23.275,5.748 23.539,5.638 23.814,5.638C24.089,5.638 24.353,5.748 24.547,5.942C24.747,6.142 24.964,6.359 25.164,6.559C25.358,6.753 25.468,7.017 25.468,7.292C25.468,7.567 25.358,7.831 25.164,8.026C22.792,10.398 15.481,17.709 15.481,17.709L15.473,17.702C15.473,17.702 14.709,18.466 14.106,19.069C13.711,19.464 13.069,19.464 12.674,19.069C10.49,16.885 3.927,10.322 1.67,8.065C1.465,7.86 1.35,7.582 1.35,7.292C1.35,7.002 1.465,6.724 1.67,6.519C1.849,6.341 2.039,6.15 2.218,5.972C2.42,5.77 2.694,5.656 2.981,5.656C3.267,5.656 3.541,5.77 3.744,5.972C5.681,7.91 10.772,13 12.67,14.898Z"/>
</svg>
