<svg xmlns="http://www.w3.org/2000/svg" xml:space="preserve" fill-rule="evenodd" stroke-linejoin="round" stroke-miterlimit="2" clip-rule="evenodd" viewBox="0 0 27 25"><path fill="none" d="M.897 0h25v25h-25z"/><path d="M12.67 14.898c.193.193.455.301.727.301.273 0 .535-.108.728-.301 1.907-1.908 7.041-7.041 8.956-8.956.194-.194.458-.304.733-.304s.539.11.733.304l.617.617c.194.194.304.458.304.733s-.11.539-.304.734l-9.683 9.683-.008-.007-1.367 1.367c-.395.395-1.037.395-1.432 0L1.67 8.065c-.205-.205-.32-.483-.32-.773s.115-.568.32-.773c.179-.178.369-.369.548-.547.202-.202.476-.316.763-.316.286 0 .56.114.763.316C5.681 7.91 10.772 13 12.67 14.898"/></svg>