<svg xmlns="http://www.w3.org/2000/svg" xml:space="preserve" fill-rule="evenodd" stroke-linejoin="round" stroke-miterlimit="2" clip-rule="evenodd" viewBox="0 0 27 25"><path fill="none" d="M.861 0h25v25h-25z"/><clipPath id="a"><path d="M.861 0h25v25h-25z"/></clipPath><g clip-path="url(#a)"><path d="M23.74 14.621v2.162c0 .381-.151.747-.42 1.016-.27.269-.635.421-1.016.421H2.266c-.372 0-.73-.148-.993-.412-.264-.263-.412-.621-.412-.993v-8.64c0-.37.147-.725.409-.986.261-.262.616-.409.986-.409h20.089c.37 0 .725.147.986.409.262.262.409.617.409.987v2.203h1.461c.365 0 .66.296.66.66v2.881c0 .387-.314.701-.701.701zm-12.511-3.317c.001.08-.063.145-.143.146l-1.629.015c-.219.002-.396.18-.396.399v1.275c0 .239.193.432.431.433l1.583.004c.097.001.175.079.176.175l.014 1.516c.002.262.215.473.476.473h1.188c.244 0 .443-.198.443-.443l.005-1.528c0-.05.02-.097.055-.131.035-.035.082-.054.131-.054l1.512.004c.123.001.242-.048.329-.135s.136-.205.136-.329v-1.262c0-.119-.047-.234-.132-.318s-.2-.131-.32-.13l-1.537.014c-.044 0-.086-.017-.118-.048a.1664.1664 0 0 1-.049-.118l.005-1.614c.001-.102-.04-.201-.113-.274-.072-.073-.171-.114-.274-.114h-1.3c-.13 0-.254.052-.346.144-.091.093-.142.217-.141.347z"/></g></svg>