<?xml version="1.0" encoding="UTF-8" standalone="no"?>
<!DOCTYPE svg PUBLIC "-//W3C//DTD SVG 1.1//EN" "http://www.w3.org/Graphics/SVG/1.1/DTD/svg11.dtd">
<svg width="100%" height="100%" viewBox="0 0 27 25" version="1.1" xmlns="http://www.w3.org/2000/svg" xmlns:xlink="http://www.w3.org/1999/xlink" xml:space="preserve" xmlns:serif="http://www.serif.com/" style="fill-rule:evenodd;clip-rule:evenodd;stroke-linejoin:round;stroke-miterlimit:2;">
    <rect id="battery_saver" x="0.861" y="0" width="25" height="25" style="fill:none;"/>
    <clipPath id="_clip1">
        <rect x="0.861" y="0" width="25" height="25"/>
    </clipPath>
    <g clip-path="url(#_clip1)">
        <path d="M19.429,18.508C19.567,18.508 19.7,18.563 19.798,18.661C19.895,18.759 19.95,18.891 19.95,19.029C19.95,20.326 19.95,23.595 19.95,23.595C19.95,23.968 19.802,24.325 19.539,24.588C19.275,24.852 18.918,25 18.545,25L8.152,25C7.782,25 7.427,24.853 7.165,24.591C6.904,24.33 6.757,23.975 6.757,23.605L6.757,3.516C6.757,3.146 6.904,2.791 7.165,2.53C7.427,2.268 7.782,2.121 8.152,2.121L11.24,2.121L11.24,0.661C11.24,0.296 11.536,0 11.901,0L14.781,0C15.168,0 15.482,0.314 15.482,0.701L15.482,2.121L18.514,2.121C18.895,2.121 19.26,2.272 19.529,2.542C19.799,2.811 19.95,3.176 19.95,3.557C19.95,3.557 19.95,6.801 19.95,8.092C19.95,8.23 19.895,8.362 19.798,8.46C19.7,8.558 19.567,8.613 19.429,8.613C19.111,8.613 18.706,8.613 18.388,8.613C18.249,8.613 18.117,8.667 18.019,8.765C17.922,8.863 17.867,8.995 17.867,9.133C17.867,9.651 17.867,10.439 17.867,10.956C17.867,11.094 17.812,11.227 17.714,11.325C17.617,11.422 17.484,11.477 17.346,11.477C16.829,11.477 16.04,11.477 15.523,11.477C15.385,11.477 15.252,11.532 15.155,11.63C15.057,11.727 15.002,11.86 15.002,11.998C15.002,12.799 15.002,14.322 15.002,15.123C15.002,15.261 15.057,15.394 15.155,15.491C15.252,15.589 15.385,15.644 15.523,15.644C16.04,15.644 16.829,15.644 17.346,15.644C17.484,15.644 17.617,15.699 17.714,15.796C17.812,15.894 17.867,16.027 17.867,16.165C17.867,16.682 17.867,17.47 17.867,17.988C17.867,18.126 17.922,18.258 18.019,18.356C18.117,18.454 18.249,18.508 18.388,18.508C18.706,18.508 19.111,18.508 19.429,18.508Z"/>
        <path d="M18.648,14.863L16.304,14.863C16.166,14.863 16.034,14.808 15.936,14.71C15.838,14.612 15.783,14.48 15.783,14.342C15.783,13.888 15.783,13.233 15.783,12.779C15.783,12.641 15.838,12.509 15.936,12.411C16.034,12.313 16.166,12.258 16.304,12.258C17.13,12.258 18.648,12.258 18.648,12.258L18.648,9.915C18.648,9.777 18.703,9.644 18.801,9.546C18.898,9.449 19.031,9.394 19.169,9.394C19.623,9.394 20.278,9.394 20.731,9.394C20.87,9.394 21.002,9.449 21.1,9.546C21.197,9.644 21.252,9.777 21.252,9.915C21.252,10.741 21.252,12.258 21.252,12.258L23.596,12.258C23.734,12.258 23.867,12.313 23.964,12.411C24.062,12.509 24.117,12.641 24.117,12.779C24.117,13.233 24.117,13.888 24.117,14.342C24.117,14.48 24.062,14.612 23.964,14.71C23.867,14.808 23.734,14.863 23.596,14.863C22.77,14.863 21.252,14.863 21.252,14.863L21.252,17.206C21.252,17.344 21.197,17.477 21.1,17.575C21.002,17.672 20.87,17.727 20.731,17.727C20.278,17.727 19.623,17.727 19.169,17.727C19.031,17.727 18.898,17.672 18.801,17.575C18.703,17.477 18.648,17.344 18.648,17.206C18.648,16.38 18.648,14.863 18.648,14.863Z"/>
    </g>
</svg>
