<svg xmlns="http://www.w3.org/2000/svg" xml:space="preserve" fill-rule="evenodd" stroke-linejoin="round" stroke-miterlimit="2" clip-rule="evenodd" viewBox="0 0 25 25"><path fill="none" d="M0 0h25v25H0z"/><clipPath id="a"><path d="M0 0h25v25H0z"/></clipPath><g clip-path="url(#a)"><path d="M12.332 12.5S7.07 7.238 5.105 5.274c-.402-.403-.402-1.055 0-1.457l.311-.311c.402-.403 1.055-.403 1.457 0C8.61 5.242 12.85 9.482 12.85 9.482V.024c0-.006.002-.012.007-.017.004-.004.01-.007.017-.007h.005l7.01 7.01c.194.194.304.459.304.734 0 .276-.11.54-.304.735-1.335 1.335-4.022 4.021-4.022 4.021s2.642 2.641 3.981 3.981c.202.202.315.475.315.76s-.113.559-.315.76c-1.85 1.851-6.475 6.475-6.958 6.958-.006.007-.017.009-.026.005-.009-.003-.014-.012-.014-.022v-9.424l-6.001 6.001c-.187.186-.44.291-.704.291s-.518-.105-.704-.291l-.36-.36c-.187-.187-.292-.44-.292-.704s.105-.517.292-.704zm4.741 4.741-1.723-1.723v3.446zm.015-9.497L15.35 6.006v3.476z"/></g></svg>