<?xml version="1.0" encoding="UTF-8" standalone="no"?>
<!DOCTYPE svg PUBLIC "-//W3C//DTD SVG 1.1//EN" "http://www.w3.org/Graphics/SVG/1.1/DTD/svg11.dtd">
<svg width="100%" height="100%" viewBox="0 0 25 25" version="1.1" xmlns="http://www.w3.org/2000/svg" xmlns:xlink="http://www.w3.org/1999/xlink" xml:space="preserve" xmlns:serif="http://www.serif.com/" style="fill-rule:evenodd;clip-rule:evenodd;stroke-linejoin:round;stroke-miterlimit:2;">
    <rect id="bluetooth_on" x="0" y="0" width="25" height="25" style="fill:none;"/>
    <clipPath id="_clip1">
        <rect x="0" y="0" width="25" height="25"/>
    </clipPath>
    <g clip-path="url(#_clip1)">
        <path d="M12.332,12.5C12.332,12.5 7.07,7.238 5.105,5.274C4.703,4.871 4.703,4.219 5.105,3.817C5.208,3.714 5.314,3.608 5.416,3.506C5.818,3.103 6.471,3.103 6.873,3.506C8.61,5.242 12.85,9.482 12.85,9.482L12.85,0.024C12.85,0.018 12.852,0.012 12.857,0.007C12.861,0.003 12.867,-0 12.874,0C12.877,-0 12.879,-0 12.879,-0C12.879,-0 17.956,5.077 19.889,7.01C20.083,7.204 20.193,7.469 20.193,7.744C20.193,8.02 20.083,8.284 19.889,8.479C18.554,9.814 15.867,12.5 15.867,12.5C15.867,12.5 18.509,15.141 19.848,16.481C20.05,16.683 20.163,16.956 20.163,17.241C20.163,17.526 20.05,17.8 19.848,18.001C17.998,19.852 13.373,24.476 12.89,24.959C12.884,24.966 12.873,24.968 12.864,24.964C12.855,24.961 12.85,24.952 12.85,24.942C12.85,24.151 12.85,15.518 12.85,15.518C12.85,15.518 8.57,19.798 6.849,21.519C6.662,21.705 6.409,21.81 6.145,21.81C5.881,21.81 5.627,21.705 5.441,21.519C5.322,21.4 5.199,21.277 5.081,21.159C4.894,20.972 4.789,20.719 4.789,20.455C4.789,20.191 4.894,19.938 5.081,19.751C7.026,17.806 12.332,12.5 12.332,12.5ZM17.073,17.241L15.35,15.518L15.35,18.964L17.073,17.241ZM17.088,7.744L15.35,6.006L15.35,9.482L17.088,7.744Z"/>
    </g>
</svg>
