<svg xmlns="http://www.w3.org/2000/svg" xml:space="preserve" fill-rule="evenodd" stroke-linejoin="round" stroke-miterlimit="2" clip-rule="evenodd" viewBox="0 0 27 27"><path fill="none" d="M.375 1.025h25v25h-25z"/><clipPath id="a"><path d="M.375 1.025h25v25h-25z"/></clipPath><g clip-path="url(#a)"><path d="M11.758 9.69V1.07c0-.015.013-.028.029-.028l6.874 6.874c.488.487.488 1.278 0 1.765l-3.456 3.456zm5.54 10.852-5.491 5.491c-.008.008-.021.011-.031.006-.011-.004-.018-.014-.018-.026v-9.428l-5.87 5.869c-.467.468-1.225.468-1.692 0l-.079-.078c-.467-.467-.467-1.225 0-1.692l6.661-6.661 3.484 3.483v2.531l1.265-1.265zM16.003 8.799l-1.741-1.741v3.481zM2.396 2.666c.401-.401 1.051-.401 1.452 0 3.261 3.26 16.535 16.535 19.796 19.796.401.4.401 1.05 0 1.451-.105.106-.214.214-.319.319-.401.401-1.051.401-1.452 0L2.077 4.436c-.401-.401-.401-1.051 0-1.452.105-.105.214-.213.319-.318"/></g></svg>