<?xml version="1.0" encoding="UTF-8" standalone="no"?>
<!DOCTYPE svg PUBLIC "-//W3C//DTD SVG 1.1//EN" "http://www.w3.org/Graphics/SVG/1.1/DTD/svg11.dtd">
<svg width="100%" height="100%" viewBox="0 0 27 27" version="1.1" xmlns="http://www.w3.org/2000/svg" xmlns:xlink="http://www.w3.org/1999/xlink" xml:space="preserve" xmlns:serif="http://www.serif.com/" style="fill-rule:evenodd;clip-rule:evenodd;stroke-linejoin:round;stroke-miterlimit:2;">
    <rect id="bluetooth_off" x="0.375" y="1.025" width="25" height="25" style="fill:none;"/>
    <clipPath id="_clip1">
        <rect x="0.375" y="1.025" width="25" height="25"/>
    </clipPath>
    <g clip-path="url(#_clip1)">
        <path d="M11.758,9.69L11.758,1.07C11.758,1.055 11.771,1.042 11.787,1.042L18.661,7.916C19.149,8.403 19.149,9.194 18.661,9.681L15.205,13.137L11.758,9.69ZM17.298,20.542L11.807,26.033C11.799,26.041 11.786,26.044 11.776,26.039C11.765,26.035 11.758,26.025 11.758,26.013L11.758,16.585L5.888,22.454C5.421,22.922 4.663,22.922 4.196,22.454L4.117,22.376C3.65,21.909 3.65,21.151 4.117,20.684L10.778,14.023L14.262,17.506L14.262,20.037L15.527,18.772L17.298,20.542ZM16.003,8.799L14.262,7.058L14.262,10.539L16.003,8.799Z"/>
        <path d="M2.396,2.666C2.797,2.265 3.447,2.265 3.848,2.666C7.109,5.926 20.383,19.201 23.644,22.462C24.045,22.862 24.045,23.512 23.644,23.913C23.539,24.019 23.43,24.127 23.325,24.232C22.924,24.633 22.274,24.633 21.873,24.232C18.613,20.972 5.338,7.697 2.077,4.436C1.676,4.035 1.676,3.385 2.077,2.984C2.182,2.879 2.291,2.771 2.396,2.666Z"/>
    </g>
</svg>
