<?xml version="1.0" encoding="UTF-8" standalone="no"?>
<!DOCTYPE svg PUBLIC "-//W3C//DTD SVG 1.1//EN" "http://www.w3.org/Graphics/SVG/1.1/DTD/svg11.dtd">
<svg width="100%" height="100%" viewBox="0 0 27 25" version="1.1" xmlns="http://www.w3.org/2000/svg" xmlns:xlink="http://www.w3.org/1999/xlink" xml:space="preserve" xmlns:serif="http://www.serif.com/" style="fill-rule:evenodd;clip-rule:evenodd;stroke-linejoin:round;stroke-miterlimit:2;">
    <rect id="brightness" x="0.97" y="0" width="25" height="25" style="fill:none;"/>
    <circle cx="13.47" cy="12.5" r="5.729"/>
    <path d="M13.458,0.571C14.04,0.571 14.511,1.042 14.511,1.624C14.511,2.543 14.511,3.867 14.511,4.772C14.511,5.039 14.405,5.295 14.216,5.484C14.027,5.673 13.771,5.779 13.504,5.779C13.496,5.779 13.488,5.779 13.48,5.779C13.201,5.779 12.933,5.668 12.736,5.471C12.539,5.274 12.428,5.006 12.428,4.727C12.428,3.808 12.428,2.482 12.428,1.577C12.428,1.021 12.878,0.571 13.434,0.571C13.442,0.571 13.45,0.571 13.458,0.571Z"/>
    <path d="M13.512,19.221C13.777,19.221 14.031,19.326 14.219,19.513C14.406,19.701 14.511,19.955 14.511,20.22C14.511,21.135 14.511,22.485 14.511,23.407C14.511,23.678 14.404,23.938 14.212,24.13C14.02,24.322 13.76,24.429 13.489,24.429C13.478,24.429 13.467,24.429 13.455,24.429C12.888,24.429 12.428,23.969 12.428,23.402C12.428,22.499 12.428,21.19 12.428,20.278C12.428,19.694 12.901,19.221 13.485,19.221C13.494,19.221 13.503,19.221 13.512,19.221Z"/>
    <path d="M5.026,4.073C5.437,3.662 6.104,3.662 6.516,4.073C7.165,4.723 8.102,5.659 8.742,6.299C8.931,6.488 9.037,6.744 9.037,7.011C9.037,7.278 8.931,7.534 8.742,7.723C8.736,7.729 8.73,7.735 8.724,7.74C8.527,7.938 8.26,8.049 7.981,8.049C7.702,8.048 7.434,7.938 7.237,7.74C6.587,7.09 5.649,6.153 5.009,5.513C4.616,5.12 4.616,4.483 5.009,4.09C5.015,4.084 5.02,4.079 5.026,4.073Z"/>
    <path d="M18.252,17.222C18.439,17.035 18.693,16.93 18.958,16.93C19.223,16.93 19.477,17.035 19.665,17.222C20.312,17.869 21.266,18.824 21.919,19.476C22.11,19.668 22.218,19.928 22.218,20.199C22.218,20.47 22.11,20.729 21.919,20.921C21.911,20.929 21.903,20.937 21.894,20.945C21.493,21.347 20.843,21.347 20.442,20.945C19.803,20.307 18.878,19.381 18.233,18.736C17.82,18.324 17.82,17.654 18.233,17.241C18.239,17.235 18.246,17.229 18.252,17.222Z"/>
    <path d="M1.54,12.511C1.54,11.93 2.012,11.458 2.594,11.458C3.512,11.458 4.837,11.458 5.742,11.458C6.009,11.458 6.265,11.564 6.454,11.753C6.643,11.942 6.749,12.198 6.749,12.465C6.749,12.473 6.749,12.482 6.749,12.49C6.749,12.769 6.638,13.036 6.441,13.234C6.243,13.431 5.976,13.542 5.697,13.542C4.777,13.542 3.452,13.542 2.546,13.542C1.991,13.542 1.54,13.091 1.54,12.536C1.54,12.528 1.54,12.52 1.54,12.511Z"/>
    <path d="M20.19,12.457C20.19,12.192 20.296,11.938 20.483,11.751C20.67,11.564 20.924,11.458 21.189,11.458C22.105,11.458 23.454,11.458 24.377,11.458C24.648,11.458 24.908,11.566 25.099,11.758C25.291,11.949 25.399,12.209 25.399,12.48C25.399,12.491 25.399,12.503 25.399,12.514C25.399,13.082 24.939,13.542 24.371,13.542C23.468,13.542 22.159,13.542 21.247,13.542C20.664,13.542 20.19,13.068 20.19,12.485C20.19,12.475 20.19,12.466 20.19,12.457Z"/>
    <path d="M5.042,20.943C4.631,20.532 4.631,19.865 5.042,19.454C5.692,18.804 6.629,17.868 7.269,17.228C7.457,17.039 7.714,16.933 7.981,16.933C8.248,16.933 8.504,17.039 8.693,17.228C8.698,17.234 8.704,17.239 8.71,17.245C8.907,17.442 9.018,17.71 9.018,17.989C9.018,18.268 8.907,18.535 8.71,18.733C8.06,19.383 7.122,20.32 6.482,20.96C6.089,21.353 5.452,21.353 5.06,20.96C5.054,20.955 5.048,20.949 5.042,20.943Z"/>
    <path d="M18.192,7.717C18.004,7.53 17.899,7.276 17.899,7.011C17.899,6.746 18.004,6.492 18.192,6.305C18.839,5.657 19.793,4.703 20.446,4.051C20.637,3.859 20.897,3.751 21.168,3.751C21.439,3.751 21.699,3.859 21.891,4.051C21.899,4.059 21.907,4.067 21.915,4.075C22.316,4.476 22.316,5.127 21.915,5.528C21.276,6.166 20.351,7.092 19.706,7.737C19.293,8.15 18.624,8.15 18.211,7.737C18.204,7.73 18.198,7.724 18.192,7.717Z"/>
</svg>
