<svg xmlns="http://www.w3.org/2000/svg" xml:space="preserve" fill-rule="evenodd" stroke-linejoin="round" stroke-miterlimit="2" clip-rule="evenodd" viewBox="0 0 27 25"><path fill="none" d="M.97 0h25v25h-25z"/><circle cx="13.47" cy="12.5" r="5.729"/><path d="M13.458.571c.582 0 1.053.471 1.053 1.053v3.148c0 .267-.106.523-.295.712s-.445.295-.712.295h-.024c-.279 0-.547-.111-.744-.308s-.308-.465-.308-.744v-3.15c0-.556.45-1.006 1.006-1.006zm.054 18.65c.265 0 .519.105.707.292.187.188.292.442.292.707v3.187c0 .271-.107.531-.299.723s-.452.299-.723.299h-.034c-.567 0-1.027-.46-1.027-1.027v-3.124c0-.584.473-1.057 1.057-1.057zM5.026 4.073c.411-.411 1.078-.411 1.49 0 .649.65 1.586 1.586 2.226 2.226.189.189.295.445.295.712s-.106.523-.295.712c-.006.006-.012.012-.018.017-.197.198-.464.309-.743.309-.279-.001-.547-.111-.744-.309-.65-.65-1.588-1.587-2.228-2.227-.393-.393-.393-1.03 0-1.423zm13.226 13.149c.187-.187.441-.292.706-.292s.519.105.707.292c.647.647 1.601 1.602 2.254 2.254.191.192.299.452.299.723s-.108.53-.299.722c-.008.008-.016.016-.025.024-.401.402-1.051.402-1.452 0-.639-.638-1.564-1.564-2.209-2.209-.413-.412-.413-1.082 0-1.495.006-.006.013-.012.019-.019M1.54 12.511c0-.581.472-1.053 1.054-1.053h3.148c.267 0 .523.106.712.295s.295.445.295.712v.025c0 .279-.111.546-.308.744-.198.197-.465.308-.744.308H2.546c-.555 0-1.006-.451-1.006-1.006zm18.65-.054c0-.265.106-.519.293-.706s.441-.293.706-.293h3.188c.271 0 .531.108.722.3.192.191.3.451.3.722v.034c0 .568-.46 1.028-1.028 1.028h-3.124c-.583 0-1.057-.474-1.057-1.057zM5.042 20.943c-.411-.411-.411-1.078 0-1.489.65-.65 1.587-1.586 2.227-2.226.188-.189.445-.295.712-.295s.523.106.712.295c.005.006.011.011.017.017.197.197.308.465.308.744s-.111.546-.308.744c-.65.65-1.588 1.587-2.228 2.227-.393.393-1.03.393-1.422 0-.006-.005-.012-.011-.018-.017m13.15-13.226c-.188-.187-.293-.441-.293-.706s.105-.519.293-.706c.647-.648 1.601-1.602 2.254-2.254.191-.192.451-.3.722-.3s.531.108.723.3l.024.024c.401.401.401 1.052 0 1.453-.639.638-1.564 1.564-2.209 2.209-.413.413-1.082.413-1.495 0-.007-.007-.013-.013-.019-.02"/></svg>