<?xml version="1.0" encoding="UTF-8" standalone="no"?>
<!DOCTYPE svg PUBLIC "-//W3C//DTD SVG 1.1//EN" "http://www.w3.org/Graphics/SVG/1.1/DTD/svg11.dtd">
<svg width="100%" height="100%" viewBox="0 0 27 25" version="1.1" xmlns="http://www.w3.org/2000/svg" xmlns:xlink="http://www.w3.org/1999/xlink" xml:space="preserve" xmlns:serif="http://www.serif.com/" style="fill-rule:evenodd;clip-rule:evenodd;stroke-linejoin:round;stroke-miterlimit:2;">
    <rect id="check" x="0.933" y="0" width="25" height="25" style="fill:none;"/>
    <path d="M24.519,5.94L10.669,19.79L10.662,19.783L9.295,21.15C8.899,21.546 8.258,21.546 7.862,21.15L2.361,15.649C2.158,15.446 2.044,15.171 2.044,14.884C2.044,14.597 2.158,14.322 2.361,14.119L2.954,13.526C3.147,13.334 3.408,13.226 3.68,13.226C3.952,13.226 4.212,13.334 4.405,13.526L7.858,16.98C8.051,17.173 8.313,17.281 8.586,17.281C8.858,17.281 9.12,17.173 9.313,16.98L22.435,3.857C22.63,3.663 22.894,3.553 23.169,3.553C23.444,3.553 23.708,3.663 23.902,3.857L24.519,4.473C24.713,4.668 24.823,4.932 24.823,5.207C24.823,5.482 24.713,5.746 24.519,5.94Z"/>
</svg>
