<svg xmlns="http://www.w3.org/2000/svg" xml:space="preserve" fill-rule="evenodd" stroke-linejoin="round" stroke-miterlimit="2" clip-rule="evenodd" viewBox="0 0 27 25"><path fill="none" d="M.933 0h25v25h-25z"/><path d="m24.519 5.94-13.85 13.85-.007-.007-1.367 1.367c-.396.396-1.037.396-1.433 0l-5.501-5.501a1.0816 1.0816 0 0 1-.317-.765c0-.287.114-.562.317-.765l.593-.593c.193-.192.454-.3.726-.3s.532.108.725.3l3.453 3.454c.193.193.455.301.728.301.272 0 .534-.108.727-.301L22.435 3.857c.195-.194.459-.304.734-.304s.539.11.733.304l.617.616c.194.195.304.459.304.734s-.11.539-.304.733"/></svg>