<?xml version="1.0" encoding="UTF-8" standalone="no"?>
<!DOCTYPE svg PUBLIC "-//W3C//DTD SVG 1.1//EN" "http://www.w3.org/Graphics/SVG/1.1/DTD/svg11.dtd">
<svg width="100%" height="100%" viewBox="0 0 27 25" version="1.1" xmlns="http://www.w3.org/2000/svg" xmlns:xlink="http://www.w3.org/1999/xlink" xml:space="preserve" xmlns:serif="http://www.serif.com/" style="fill-rule:evenodd;clip-rule:evenodd;stroke-linejoin:round;stroke-miterlimit:2;">
    <rect id="ethernet" x="0.897" y="0" width="25" height="25" style="fill:none;"/>
    <path d="M16.54,0C17.105,0 17.564,0.459 17.564,1.024L17.564,7.309C17.564,7.875 17.105,8.333 16.54,8.333L10.255,8.333C9.689,8.333 9.231,7.875 9.231,7.309L9.231,1.024C9.231,0.459 9.689,0 10.255,0L16.54,0Z"/>
    <path d="M20.672,13.963L6.123,13.963L6.123,16.657L4.005,16.657L4.005,12.93L4.005,12.921C4.007,12.646 4.118,12.382 4.313,12.187C4.51,11.99 4.777,11.88 5.056,11.88L12.338,11.88L12.338,8.333L14.456,8.333L14.456,11.88L21.739,11.88C22.018,11.88 22.285,11.99 22.482,12.187C22.679,12.384 22.79,12.653 22.79,12.931L22.79,16.667L20.672,16.667L20.672,13.963Z"/>
    <path d="M8.206,16.667C8.772,16.667 9.231,17.125 9.231,17.691L9.231,23.976C9.231,24.541 8.772,25 8.206,25L1.922,25C1.356,25 0.897,24.541 0.897,23.976L0.897,17.691C0.897,17.125 1.356,16.667 1.922,16.667L8.206,16.667Z"/>
    <path d="M24.873,16.667C25.439,16.667 25.897,17.125 25.897,17.691L25.897,23.976C25.897,24.541 25.439,25 24.873,25L18.588,25C18.023,25 17.564,24.541 17.564,23.976L17.564,17.691C17.564,17.125 18.023,16.667 18.588,16.667L24.873,16.667Z"/>
</svg>
