<svg xmlns="http://www.w3.org/2000/svg" xml:space="preserve" fill-rule="evenodd" stroke-linejoin="round" stroke-miterlimit="2" clip-rule="evenodd" viewBox="0 0 27 25"><path fill="none" d="M.897 0h25v25h-25z"/><path d="M16.54 0c.565 0 1.024.459 1.024 1.024v6.285c0 .566-.459 1.024-1.024 1.024h-6.285c-.566 0-1.024-.458-1.024-1.024V1.024C9.231.459 9.689 0 10.255 0zm-4.202 8.333h2.118v4.598h-2.118z"/><path d="M21.739 11.88c.279 0 .546.11.743.307s.308.464.308.743v1.033H4.005V12.93c0-.279.111-.546.308-.743s.464-.307.743-.307z"/><path d="M20.672 12.931h2.118v3.735h-2.118zm-16.667-.01h2.118v3.735H4.005zm4.201 3.746c.566 0 1.025.458 1.025 1.024v6.285c0 .565-.459 1.024-1.025 1.024H1.922c-.566 0-1.025-.459-1.025-1.024v-6.285c0-.566.459-1.024 1.025-1.024zm16.667 0c.566 0 1.024.458 1.024 1.024v6.285c0 .565-.458 1.024-1.024 1.024h-6.285c-.565 0-1.024-.459-1.024-1.024v-6.285c0-.566.459-1.024 1.024-1.024z"/></svg>