<?xml version="1.0" encoding="UTF-8" standalone="no"?>
<!DOCTYPE svg PUBLIC "-//W3C//DTD SVG 1.1//EN" "http://www.w3.org/Graphics/SVG/1.1/DTD/svg11.dtd">
<svg width="100%" height="100%" viewBox="0 0 27 25" version="1.1" xmlns="http://www.w3.org/2000/svg" xmlns:xlink="http://www.w3.org/1999/xlink" xml:space="preserve" xmlns:serif="http://www.serif.com/" style="fill-rule:evenodd;clip-rule:evenodd;stroke-linejoin:round;stroke-miterlimit:2;">
    <rect id="no_internet" x="0.861" y="0" width="25" height="25" style="fill:none;"/>
    <path d="M14.251,7.352C15.598,6.006 17.781,6.006 19.128,7.352C19.221,7.446 19.316,7.54 19.409,7.634C20.737,8.962 20.737,11.115 19.409,12.443C19.057,12.795 18.719,13.133 18.439,13.414C18.247,13.606 17.986,13.714 17.714,13.714C17.442,13.714 17.182,13.606 16.99,13.414C16.017,12.441 14.298,10.722 13.321,9.745C12.917,9.341 12.917,8.686 13.321,8.282C13.591,8.013 13.914,7.69 14.251,7.352Z"/>
    <path d="M12.529,19.324C11.182,20.67 8.999,20.67 7.653,19.324C7.559,19.23 7.465,19.136 7.371,19.042C6.043,17.714 6.043,15.561 7.371,14.233C7.723,13.881 8.061,13.543 8.341,13.262C8.533,13.07 8.794,12.962 9.066,12.962C9.338,12.962 9.598,13.07 9.791,13.262C10.764,14.235 12.482,15.954 13.459,16.931C13.863,17.335 13.863,17.99 13.459,18.394C13.189,18.663 12.866,18.986 12.529,19.324Z"/>
    <path d="M10.834,14.421L12.307,15.894C12.307,15.894 6.083,22.119 5.333,22.869C5.313,22.888 5.287,22.899 5.259,22.899C5.231,22.899 5.205,22.888 5.185,22.869C5.06,22.743 4.791,22.474 4.522,22.206C4.116,21.799 4.116,21.139 4.522,20.733C6.329,18.926 10.834,14.421 10.834,14.421Z"/>
    <path d="M11.481,12.161C11.667,11.975 11.969,11.975 12.155,12.161C12.176,12.182 12.197,12.203 12.218,12.224C12.404,12.41 12.404,12.711 12.218,12.897C11.714,13.402 10.822,14.294 10.822,14.294L10.085,13.557C10.085,13.557 10.977,12.665 11.481,12.161Z"/>
    <path d="M13.831,14.51C14.017,14.324 14.318,14.324 14.505,14.51C14.525,14.531 14.546,14.552 14.567,14.573C14.753,14.759 14.753,15.061 14.567,15.247C14.063,15.751 13.171,16.643 13.171,16.643L12.434,15.906C12.434,15.906 13.327,15.014 13.831,14.51Z"/>
    <path d="M20.729,4.526C20.924,4.331 21.188,4.222 21.464,4.222C21.739,4.222 22.003,4.331 22.198,4.526C22.199,4.527 22.201,4.529 22.202,4.53C22.397,4.725 22.506,4.989 22.506,5.265C22.506,5.54 22.397,5.804 22.202,5.999C20.397,7.804 15.889,12.313 15.889,12.313L14.416,10.839C14.416,10.839 18.924,6.331 20.729,4.526Z"/>
</svg>
