<svg xmlns="http://www.w3.org/2000/svg" xml:space="preserve" fill-rule="evenodd" stroke-linejoin="round" stroke-miterlimit="2" clip-rule="evenodd" viewBox="0 0 27 25"><path fill="none" d="M.861 0h25v25h-25z"/><path d="M14.251 7.352c1.347-1.346 3.53-1.346 4.877 0 .093.094.188.188.281.282 1.328 1.328 1.328 3.481 0 4.809-.352.352-.69.69-.97.971-.192.192-.453.3-.725.3s-.532-.108-.724-.3l-3.669-3.669c-.404-.404-.404-1.059 0-1.463.27-.269.593-.592.93-.93m-1.722 11.972c-1.347 1.346-3.53 1.346-4.876 0l-.282-.282c-1.328-1.328-1.328-3.481 0-4.809.352-.352.69-.69.97-.971.192-.192.453-.3.725-.3s.532.108.725.3c.973.973 2.691 2.692 3.668 3.669.404.404.404 1.059 0 1.463-.27.269-.593.592-.93.93"/><path d="m10.834 14.421 1.473 1.473s-6.224 6.225-6.974 6.975c-.02.019-.046.03-.074.03s-.054-.011-.074-.03c-.125-.126-.394-.395-.663-.663-.406-.407-.406-1.067 0-1.473zm.647-2.26c.186-.186.488-.186.674 0l.063.063c.186.186.186.487 0 .673-.504.505-1.396 1.397-1.396 1.397l-.737-.737zm2.35 2.349c.186-.186.487-.186.674 0 .02.021.041.042.062.063.186.186.186.488 0 .674l-1.396 1.396-.737-.737s.893-.892 1.397-1.396m6.898-9.984c.195-.195.459-.304.735-.304.275 0 .539.109.734.304l.004.004c.195.195.304.459.304.735 0 .275-.109.539-.304.734-1.805 1.805-6.313 6.314-6.313 6.314l-1.473-1.474z"/></svg>