<?xml version="1.0" encoding="UTF-8" standalone="no"?>
<!DOCTYPE svg PUBLIC "-//W3C//DTD SVG 1.1//EN" "http://www.w3.org/Graphics/SVG/1.1/DTD/svg11.dtd">
<svg width="100%" height="100%" viewBox="0 0 25 25" version="1.1" xmlns="http://www.w3.org/2000/svg" xmlns:xlink="http://www.w3.org/1999/xlink" xml:space="preserve" xmlns:serif="http://www.serif.com/" style="fill-rule:evenodd;clip-rule:evenodd;stroke-linejoin:round;stroke-miterlimit:2;">
    <rect id="project" x="0" y="0" width="25" height="25" style="fill:none;"/>
    <path d="M24.51,3.348C24.78,3.348 25,3.568 25,3.839C25,6.034 25,14.948 25,17.144C25,17.414 24.78,17.634 24.51,17.634C21.33,17.634 3.67,17.634 0.49,17.634C0.22,17.634 0,17.414 0,17.144C0,14.948 0,6.034 0,3.839C0,3.568 0.22,3.348 0.49,3.348C3.67,3.348 21.33,3.348 24.51,3.348Z"/>
    <path d="M20.066,18.08C20.337,18.08 20.556,18.3 20.556,18.571C20.556,19.252 20.556,20.48 20.556,21.161C20.556,21.432 20.337,21.652 20.066,21.652C17.682,21.652 7.318,21.652 4.934,21.652C4.663,21.652 4.444,21.432 4.444,21.161C4.444,20.48 4.444,19.252 4.444,18.571C4.444,18.3 4.663,18.08 4.934,18.08C7.318,18.08 17.682,18.08 20.066,18.08Z"/>
</svg>
