<?xml version="1.0" encoding="UTF-8" standalone="no"?>
<!DOCTYPE svg PUBLIC "-//W3C//DTD SVG 1.1//EN" "http://www.w3.org/Graphics/SVG/1.1/DTD/svg11.dtd">
<svg width="100%" height="100%" viewBox="0 0 27 25" version="1.1" xmlns="http://www.w3.org/2000/svg" xmlns:xlink="http://www.w3.org/1999/xlink" xml:space="preserve" xmlns:serif="http://www.serif.com/" style="fill-rule:evenodd;clip-rule:evenodd;stroke-linejoin:round;stroke-miterlimit:2;">
    <rect id="volume_high" x="1.006" y="0" width="25" height="25" style="fill:none;"/>
    <clipPath id="_clip1">
        <rect x="1.006" y="0" width="25" height="25"/>
    </clipPath>
    <g clip-path="url(#_clip1)">
        <path d="M21.833,0C21.963,-0 22.088,0.052 22.18,0.144C22.272,0.236 22.324,0.36 22.324,0.49L22.324,24.51C22.324,24.64 22.272,24.764 22.18,24.856C22.088,24.948 21.963,25 21.833,25L5.178,25C5.048,25 4.923,24.948 4.831,24.856C4.739,24.764 4.688,24.64 4.688,24.51L4.688,0.49C4.688,0.36 4.739,0.236 4.831,0.144C4.923,0.052 5.048,-0 5.178,0L21.833,0ZM13.506,5.283C12.068,5.283 10.901,6.45 10.901,7.887C10.901,9.324 12.068,10.491 13.506,10.491C14.943,10.491 16.11,9.324 16.11,7.887C16.11,6.45 14.943,5.283 13.506,5.283ZM13.506,12.5C10.918,12.5 8.818,14.6 8.818,17.187C8.818,19.775 10.918,21.875 13.506,21.875C16.093,21.875 18.193,19.775 18.193,17.187C18.193,14.6 16.093,12.5 13.506,12.5ZM8.842,1.46L8.794,1.46C8.662,1.46 8.536,1.512 8.443,1.606C8.35,1.699 8.297,1.825 8.297,1.957L8.297,2.99C8.297,3.122 8.35,3.248 8.443,3.341C8.536,3.434 8.662,3.486 8.794,3.486L8.842,3.486C8.974,3.486 9.1,3.434 9.194,3.341C9.287,3.248 9.339,3.122 9.339,2.99L9.339,1.957C9.339,1.825 9.287,1.699 9.194,1.606C9.1,1.512 8.974,1.46 8.842,1.46Z"/>
        <circle cx="13.506" cy="17.188" r="2.778"/>
    </g>
</svg>
