<svg xmlns="http://www.w3.org/2000/svg" xml:space="preserve" fill-rule="evenodd" stroke-linejoin="round" stroke-miterlimit="2" clip-rule="evenodd" viewBox="0 0 27 25"><path fill="none" d="M.933 0h25v25h-25z"/><clipPath id="a"><path d="M.933 0h25v25h-25z"/></clipPath><g clip-path="url(#a)"><path d="M4.789.116c.088-.075.2-.116.317-.116h16.655c.13 0 .255.052.347.144s.144.216.144.346v17.089l-7.467-7.466c.751-.457 1.253-1.284 1.253-2.226 0-1.437-1.167-2.604-2.605-2.604-.942 0-1.768.501-2.225 1.252zm17.363 24.69c-.014.018-.028.035-.044.05-.092.092-.217.144-.347.144H5.106c-.13 0-.255-.052-.347-.144s-.144-.216-.144-.346V7.27l6.1 6.1c-1.192.85-1.969 2.244-1.969 3.817 0 2.588 2.1 4.688 4.687 4.688 1.574 0 2.968-.777 3.818-1.969zM8.77 1.46h-.048c-.132 0-.258.052-.352.146-.093.093-.145.219-.145.351V2.99c0 .132.052.258.145.351.094.093.22.145.352.145h.048c.132 0 .258-.052.351-.145s.146-.219.146-.351V1.957c0-.132-.053-.258-.146-.351-.093-.094-.219-.146-.351-.146"/><path d="M15.869 18.524c-.473.859-1.387 1.442-2.436 1.442-1.533 0-2.778-1.245-2.778-2.778 0-1.05.583-1.964 1.442-2.436zM2.609 1.073c.401-.401 1.051-.4 1.452 0 3.384 3.385 17.591 17.592 20.975 20.976.401.401.401 1.051 0 1.452l-.773.773c-.401.401-1.051.401-1.452 0L1.836 3.299c-.401-.401-.401-1.051 0-1.452.248-.248.525-.526.773-.774"/></g></svg>