<svg width="800" height="800" viewBox="0 0 24 24" fill="none" xmlns="http://www.w3.org/2000/svg"><path d="M18 9c.628.836 1 1.874 1 3a4.98 4.98 0 0 1-1 3M6.6 9h.901c.551 0 .827 0 1.082-.069a2 2 0 0 0 .631-.295c.216-.152.393-.364.746-.787l2.625-3.151c.436-.523.654-.785.844-.812a.5.5 0 0 1 .442.16C14 4.19 14 4.53 14 5.21v13.58c0 .681 0 1.021-.129 1.164a.5.5 0 0 1-.442.16c-.19-.027-.408-.289-.844-.811L9.96 16.15c-.353-.423-.53-.634-.746-.787a2 2 0 0 0-.631-.295C8.328 15 8.053 15 7.5 15h-.9c-.56 0-.84 0-1.054-.109a1 1 0 0 1-.437-.437C5 14.24 5 13.96 5 13.4v-2.8c0-.56 0-.84.109-1.054a1 1 0 0 1 .437-.437C5.76 9 6.04 9 6.6 9" stroke="#000" stroke-width="2" stroke-linecap="round" stroke-linejoin="round"/></svg>
