<?xml version="1.0" encoding="UTF-8" standalone="no"?>
<!DOCTYPE svg PUBLIC "-//W3C//DTD SVG 1.1//EN" "http://www.w3.org/Graphics/SVG/1.1/DTD/svg11.dtd">
<svg width="100%" height="100%" viewBox="0 0 27 25" version="1.1" xmlns="http://www.w3.org/2000/svg" xmlns:xlink="http://www.w3.org/1999/xlink" xml:space="preserve" xmlns:serif="http://www.serif.com/" style="fill-rule:evenodd;clip-rule:evenodd;stroke-linejoin:round;stroke-miterlimit:2;">
    <rect id="volume_zero" x="0.933" y="0" width="25" height="25" style="fill:none;"/>
    <clipPath id="_clip1">
        <rect x="0.933" y="0" width="25" height="25"/>
    </clipPath>
    <g clip-path="url(#_clip1)">
        <path d="M4.789,0.116C4.877,0.041 4.989,-0 5.106,-0L21.761,-0C21.891,-0 22.016,0.052 22.108,0.144C22.2,0.236 22.252,0.36 22.252,0.49L22.252,17.579L14.785,10.113C15.536,9.656 16.038,8.829 16.038,7.887C16.038,6.45 14.871,5.283 13.433,5.283C12.491,5.283 11.665,5.784 11.208,6.535L4.789,0.116ZM22.152,24.806C22.138,24.824 22.124,24.841 22.108,24.856C22.016,24.948 21.891,25 21.761,25L5.106,25C4.976,25 4.851,24.948 4.759,24.856C4.667,24.764 4.615,24.64 4.615,24.51L4.615,7.27L10.715,13.37C9.523,14.22 8.746,15.614 8.746,17.187C8.746,19.775 10.846,21.875 13.433,21.875C15.007,21.875 16.401,21.098 17.251,19.906L22.152,24.806ZM8.77,1.46L8.722,1.46C8.59,1.46 8.464,1.512 8.37,1.606C8.277,1.699 8.225,1.825 8.225,1.957L8.225,2.99C8.225,3.122 8.277,3.248 8.37,3.341C8.464,3.434 8.59,3.486 8.722,3.486L8.77,3.486C8.902,3.486 9.028,3.434 9.121,3.341C9.214,3.248 9.267,3.122 9.267,2.99L9.267,1.957C9.267,1.825 9.214,1.699 9.121,1.606C9.028,1.512 8.902,1.46 8.77,1.46Z"/>
        <path d="M15.869,18.524C15.396,19.383 14.482,19.966 13.433,19.966C11.9,19.966 10.655,18.721 10.655,17.188C10.655,16.138 11.238,15.224 12.097,14.752L15.869,18.524Z"/>
        <path d="M2.609,1.073C3.01,0.672 3.66,0.673 4.061,1.073C7.445,4.458 21.652,18.665 25.036,22.049C25.437,22.45 25.437,23.1 25.036,23.501C24.788,23.749 24.511,24.026 24.263,24.274C23.862,24.675 23.212,24.675 22.811,24.274C19.427,20.89 5.22,6.683 1.836,3.299C1.435,2.898 1.435,2.248 1.836,1.847C2.084,1.599 2.361,1.321 2.609,1.073Z"/>
    </g>
</svg>
