<svg xmlns="http://www.w3.org/2000/svg" xml:space="preserve" fill-rule="evenodd" stroke-linejoin="round" stroke-miterlimit="2" clip-rule="evenodd" viewBox="0 0 27 25"><path fill="none" d="M1.006 0h25v25h-25z"/><clipPath id="a"><path d="M1.006 0h25v25h-25z"/></clipPath><g clip-path="url(#a)"><path d="M21.833 0c.13 0 .255.052.347.144s.144.216.144.346v24.02c0 .13-.052.254-.144.346s-.217.144-.347.144H5.178c-.13 0-.255-.052-.347-.144s-.143-.216-.143-.346V.49c0-.13.051-.254.143-.346S5.048 0 5.178 0zm-8.327 5.283c-1.438 0-2.605 1.167-2.605 2.604s1.167 2.604 2.605 2.604c1.437 0 2.604-1.167 2.604-2.604s-1.167-2.604-2.604-2.604m0 7.217c-2.588 0-4.688 2.1-4.688 4.687 0 2.588 2.1 4.688 4.688 4.688 2.587 0 4.687-2.1 4.687-4.688 0-2.587-2.1-4.687-4.687-4.687M8.842 1.46h-.048c-.132 0-.258.052-.351.146-.093.093-.146.219-.146.351V2.99c0 .132.053.258.146.351s.219.145.351.145h.048c.132 0 .258-.052.352-.145.093-.093.145-.219.145-.351V1.957c0-.132-.052-.258-.145-.351-.094-.094-.22-.146-.352-.146"/><circle cx="13.506" cy="17.188" r="2.778"/></g></svg>