<svg xmlns="http://www.w3.org/2000/svg" xml:space="preserve" fill-rule="evenodd" stroke-linejoin="round" stroke-miterlimit="2" clip-rule="evenodd" viewBox="0 0 25 25"><path fill="none" d="M0 0h25v25H0z"/><path d="M3.572 14.018 0 11.531c2.754-3.945 7.328-6.529 12.5-6.529s9.746 2.584 12.5 6.529l-3.572 2.487C19.461 11.2 16.194 9.354 12.5 9.354S5.539 11.2 3.572 14.018m16.963.622-3.571 2.486c-.983-1.409-2.617-2.331-4.464-2.331s-3.481.922-4.464 2.331L4.465 14.64c1.77-2.537 4.71-4.198 8.035-4.198s6.265 1.661 8.035 4.198m-4.464 3.108s-1.928 1.343-2.951 2.055c-.373.26-.867.26-1.24 0-1.023-.712-2.951-2.055-2.951-2.055.787-1.127 2.093-1.865 3.571-1.865s2.784.738 3.571 1.865"/></svg>