<svg xmlns="http://www.w3.org/2000/svg" xml:space="preserve" fill-rule="evenodd" stroke-linejoin="round" stroke-miterlimit="2" clip-rule="evenodd" viewBox="0 0 27 25"><path fill="none" d="M1.006 0h25v25h-25z"/><path d="m21.577 14.64-3.571 2.486c-.984-1.409-2.617-2.331-4.464-2.331-1.848 0-3.481.922-4.464 2.331L5.506 14.64c1.771-2.537 4.711-4.198 8.036-4.198s6.265 1.661 8.035 4.198m-4.464 3.108s-1.986 1.383-2.996 2.086c-.346.241-.805.241-1.151 0-1.01-.703-2.996-2.086-2.996-2.086.787-1.127 2.094-1.865 3.572-1.865 1.477 0 2.784.738 3.571 1.865"/></svg>