<?xml version="1.0" encoding="UTF-8" standalone="no"?>
<!DOCTYPE svg PUBLIC "-//W3C//DTD SVG 1.1//EN" "http://www.w3.org/Graphics/SVG/1.1/DTD/svg11.dtd">
<svg width="100%" height="100%" viewBox="0 0 27 27" version="1.1" xmlns="http://www.w3.org/2000/svg" xmlns:xlink="http://www.w3.org/1999/xlink" xml:space="preserve" xmlns:serif="http://www.serif.com/" style="fill-rule:evenodd;clip-rule:evenodd;stroke-linejoin:round;stroke-miterlimit:2;">
    <rect id="pause" x="0.239" y="0.928" width="25" height="24.96" style="fill:none;"/>
    <clipPath id="_clip1">
        <rect x="0.239" y="0.928" width="25" height="24.96"/>
    </clipPath>
    <g clip-path="url(#_clip1)">
        <path d="M5.708,2.862C5.708,2.339 5.872,1.837 6.165,1.467C6.458,1.096 6.856,0.889 7.27,0.889C7.685,0.889 8.082,1.096 8.375,1.467C8.668,1.837 8.833,2.339 8.833,2.862C8.833,7.537 8.833,19.24 8.833,23.915C8.833,24.438 8.668,24.94 8.375,25.31C8.082,25.681 7.685,25.889 7.27,25.889C6.856,25.889 6.458,25.681 6.165,25.31C5.872,24.94 5.708,24.438 5.708,23.915C5.708,19.24 5.708,7.537 5.708,2.862Z"/>
        <path d="M16.645,2.862C16.645,2.339 16.81,1.837 17.103,1.467C17.396,1.096 17.793,0.889 18.208,0.889C18.622,0.889 19.02,1.096 19.313,1.467C19.606,1.837 19.77,2.339 19.77,2.862C19.77,7.537 19.77,19.24 19.77,23.915C19.77,24.438 19.606,24.94 19.313,25.31C19.02,25.681 18.622,25.889 18.208,25.889C17.793,25.889 17.396,25.681 17.103,25.31C16.81,24.94 16.645,24.438 16.645,23.915C16.645,19.24 16.645,7.537 16.645,2.862Z"/>
    </g>
</svg>
