<svg xmlns="http://www.w3.org/2000/svg" xml:space="preserve" fill-rule="evenodd" stroke-linejoin="round" stroke-miterlimit="2" clip-rule="evenodd" viewBox="0 0 27 27"><path fill="none" d="M.897.025h25v25h-25z"/><clipPath id="a"><path d="M.897.025h25v25h-25z"/></clipPath><g clip-path="url(#a)"><path d="M21.226 6.968v16.479c0 .858-.696 1.553-1.554 1.553H7.161c-.862 0-1.56-.698-1.56-1.56V1.614C5.601.723 6.323 0 7.215 0h7.043v5.461c0 .399.158.783.441 1.065.283.283.666.442 1.066.442zm-3.125 9.197c0-.087-.071-.157-.158-.157H8.958c-.061 0-.121.024-.164.068-.044.043-.068.102-.068.164v.825c0 .046.018.089.05.122.032.032.076.05.121.05h9.025c.047 0 .093-.019.126-.052.034-.034.053-.079.053-.127zm0-4.915c0-.088-.072-.16-.161-.16H8.909c-.048 0-.095.019-.13.054-.034.034-.053.081-.053.129v.811c0 .13.105.235.235.235h8.92c.058 0 .114-.023.155-.064.042-.042.065-.098.065-.156zm0 2.48c0-.048-.019-.094-.053-.128-.035-.034-.081-.053-.129-.053H8.908c-.048 0-.095.019-.129.053s-.053.08-.053.129v.884c0 .09.073.163.162.163h9.036c.097 0 .177-.079.177-.177zm0 4.9c0-.043-.018-.085-.048-.116-.031-.03-.072-.048-.116-.048H8.912c-.103 0-.186.084-.186.187v.832c0 .117.094.211.21.211h9.007c.087 0 .158-.071.158-.158z"/><path d="M20.71 6.453h-4.43c-.399 0-.783-.159-1.066-.442-.282-.282-.441-.666-.441-1.066V.515z"/></g></svg>