<?xml version="1.0" encoding="UTF-8" standalone="no"?>
<!DOCTYPE svg PUBLIC "-//W3C//DTD SVG 1.1//EN" "http://www.w3.org/Graphics/SVG/1.1/DTD/svg11.dtd">
<svg width="100%" height="100%" viewBox="0 0 27 27" version="1.1" xmlns="http://www.w3.org/2000/svg" xmlns:xlink="http://www.w3.org/1999/xlink" xml:space="preserve" xmlns:serif="http://www.serif.com/" style="fill-rule:evenodd;clip-rule:evenodd;stroke-linejoin:round;stroke-miterlimit:2;">
    <rect id="file" x="0.897" y="0.025" width="25" height="25" style="fill:none;"/>
    <clipPath id="_clip1">
        <rect x="0.897" y="0.025" width="25" height="25"/>
    </clipPath>
    <g clip-path="url(#_clip1)">
        <path d="M21.226,6.968L21.226,23.447C21.226,24.305 20.53,25 19.672,25L7.161,25C6.299,25 5.601,24.302 5.601,23.44L5.601,1.614C5.601,0.723 6.323,0 7.215,-0L14.258,0L14.258,5.461C14.258,5.86 14.416,6.244 14.699,6.526C14.982,6.809 15.365,6.968 15.765,6.968L21.226,6.968ZM18.101,16.165C18.101,16.078 18.03,16.008 17.943,16.008C16.84,16.008 10.282,16.008 8.958,16.008C8.897,16.008 8.837,16.032 8.794,16.076C8.75,16.119 8.726,16.178 8.726,16.24C8.726,16.481 8.726,16.85 8.726,17.065C8.726,17.111 8.744,17.154 8.776,17.187C8.808,17.219 8.852,17.237 8.897,17.237C10.058,17.237 16.74,17.237 17.922,17.237C17.969,17.237 18.015,17.218 18.048,17.185C18.082,17.151 18.101,17.106 18.101,17.058C18.101,16.818 18.101,16.394 18.101,16.165ZM18.101,11.25C18.101,11.162 18.029,11.09 17.94,11.09C16.813,11.09 10.109,11.09 8.909,11.09C8.861,11.09 8.814,11.109 8.779,11.144C8.745,11.178 8.726,11.225 8.726,11.273C8.726,11.489 8.726,11.848 8.726,12.084C8.726,12.214 8.831,12.319 8.961,12.319C10.268,12.319 16.614,12.319 17.881,12.319C17.939,12.319 17.995,12.296 18.036,12.255C18.078,12.213 18.101,12.157 18.101,12.099C18.101,11.855 18.101,11.468 18.101,11.25ZM18.101,13.73C18.101,13.682 18.082,13.636 18.048,13.602C18.013,13.568 17.967,13.549 17.919,13.549C16.733,13.549 10.096,13.549 8.908,13.549C8.86,13.549 8.813,13.568 8.779,13.602C8.745,13.636 8.726,13.682 8.726,13.731C8.726,13.97 8.726,14.386 8.726,14.615C8.726,14.705 8.799,14.778 8.888,14.778C10.023,14.778 16.743,14.778 17.924,14.778C18.021,14.778 18.101,14.699 18.101,14.601C18.101,14.369 18.101,13.964 18.101,13.73ZM18.101,18.63C18.101,18.587 18.083,18.545 18.053,18.514C18.022,18.484 17.981,18.466 17.937,18.466C16.803,18.466 10.118,18.466 8.912,18.466C8.809,18.466 8.726,18.55 8.726,18.653C8.726,18.877 8.726,19.251 8.726,19.485C8.726,19.602 8.82,19.696 8.936,19.696C10.207,19.696 16.833,19.696 17.943,19.696C18.03,19.696 18.101,19.625 18.101,19.538C18.101,19.304 18.101,18.867 18.101,18.63Z"/>
        <path d="M20.71,6.453L16.28,6.453C15.881,6.453 15.497,6.294 15.214,6.011C14.932,5.729 14.773,5.345 14.773,4.945L14.773,0.515L20.71,6.453Z"/>
    </g>
</svg>
