<?xml version="1.0" encoding="UTF-8" standalone="no"?>
<!DOCTYPE svg PUBLIC "-//W3C//DTD SVG 1.1//EN" "http://www.w3.org/Graphics/SVG/1.1/DTD/svg11.dtd">
<svg width="100%" height="100%" viewBox="0 0 27 27" version="1.1" xmlns="http://www.w3.org/2000/svg" xmlns:xlink="http://www.w3.org/1999/xlink" xml:space="preserve" xmlns:serif="http://www.serif.com/" style="fill-rule:evenodd;clip-rule:evenodd;stroke-linejoin:round;stroke-miterlimit:2;">
    <rect id="search" x="0.971" y="0.928" width="25" height="24.96" style="fill:none;"/>
    <path d="M15.201,17.697C13.76,18.613 12.045,19.145 10.205,19.145C5.109,19.145 0.971,15.063 0.971,10.036C0.971,5.009 5.109,0.928 10.205,0.928C15.302,0.928 19.44,5.009 19.44,10.036C19.44,11.941 18.847,13.709 17.832,15.172C17.832,15.172 22.641,19.981 24.866,22.206C25.159,22.499 25.323,22.896 25.323,23.311C25.323,23.725 25.159,24.122 24.866,24.415C24.744,24.537 24.619,24.662 24.497,24.784C23.887,25.394 22.898,25.394 22.288,24.784C20.052,22.548 15.201,17.697 15.201,17.697ZM10.205,3.937C6.792,3.937 4.021,6.67 4.021,10.036C4.021,13.403 6.792,16.136 10.205,16.136C13.619,16.136 16.39,13.403 16.39,10.036C16.39,6.67 13.619,3.937 10.205,3.937Z"/>
</svg>
